<svg xmlns="http://www.w3.org/2000/svg" xmlns:xlink="http://www.w3.org/1999/xlink" xmlns:lucid="lucid" width="1183" height="668"><g transform="translate(-687 -656)" lucid:page-tab-id="TeAfj18c61sp"><g class="lucid-layer" lucid:layer-id=".lu8xG-5fuHe" display="block"><path d="M1686.45 1241H41v-2h1645.45zm115.05 0h-47.95v-2h47.95z"/><path d="M41.03 1241H40v-2h1.03zM1816.76 1240l-14.26 4.64v-9.28z"/><path d="M1820 1240l-18.5 6v-12zm-16.5 3.26l10.03-3.26-10.03-3.26z"/><use xlink:href="#a" transform="matrix(1,0,0,1,1686.45,1229.2) translate(0 14.4)"/><path d="M960 1080v124h20l-40 36-40-36h20v-124z" stroke="#ef8d22" stroke-width="2" fill="#fff"/><use xlink:href="#b" transform="matrix(1,0,0,1,905.0000000000007,1085) translate(4.024999999999999 67.8)"/><use xlink:href="#c" transform="matrix(1,0,0,1,905.0000000000007,1085) translate(27.525 89.4)"/><path d="M720 700h1100v100H720z" stroke="#000" stroke-width="2" fill="#fff"/><use xlink:href="#d" transform="matrix(1,0,0,1,725,705.0000000000001) translate(509.55 48.15)"/><path d="M800 1020h160v60H800z" stroke="#ef8d22" stroke-width="2" fill="#fff"/><path d="M820 1030h120v40H820z" stroke="#19967d" stroke-width="2" fill="#fff"/><use xlink:href="#e" transform="matrix(1,0,0,1,825.0000000000001,1035) translate(10.62438271604939 10.844444444444445)"/><use xlink:href="#f" transform="matrix(1,0,0,1,825.0000000000001,1035) translate(77.57376543209875 10.844444444444445)"/><use xlink:href="#g" transform="matrix(1,0,0,1,825.0000000000001,1035) translate(21.525308641975315 27.11111111111111)"/><use xlink:href="#h" transform="matrix(1,0,0,1,825.0000000000001,1035) translate(55 43.37777777777778)"/><path d="M1060 940v264h20l-40 36-40-36h20V940z" stroke="#ef8d22" stroke-width="2" fill="#fff"/><use xlink:href="#b" transform="matrix(1,0,0,1,1005,945) translate(4.024999999999999 137.8)"/><use xlink:href="#i" transform="matrix(1,0,0,1,1005,945) translate(17.275 159.4)"/><path d="M900 880h160v60H900z" stroke="#ef8d22" stroke-width="2" fill="#fff"/><path d="M920 888.73h120v42.54H920z" stroke="#19967d" stroke-width="2" fill="#fff"/><use xlink:href="#j" transform="matrix(1,0,0,1,924.9999999999999,893.7333333333333) translate(10.229012345679024 10.844444444444445)"/><use xlink:href="#k" transform="matrix(1,0,0,1,924.9999999999999,893.7333333333333) translate(41.4820987654321 27.11111111111111)"/><path d="M980 700h160v40H980z" stroke="#000" stroke-width="2" fill="#fff"/><use xlink:href="#l" transform="matrix(1,0,0,1,985,705) translate(12.574999999999996 18.15)"/><use xlink:href="#m" transform="matrix(1,0,0,1,985,705) translate(46.525 18.15)"/><path d="M987.73 841H981v45.73h-2V839h8.73zm73.27-11.8h-2v-69.7h2z"/><path d="M981 887.73h-2v-1.02h2zM1064.64 758.5h-9.28l4.64-14.26z"/><path d="M1066 759.5h-12l6-18.5zm-9.26-2h6.52l-3.26-10.03z"/><use xlink:href="#n" transform="matrix(1,0,0,1,987.7333333333332,829.2) translate(0 14.4)"/><use xlink:href="#o" transform="matrix(1,0,0,1,987.7333333333332,829.2) translate(17.95 14.4)"/><use xlink:href="#p" transform="matrix(1,0,0,1,987.7333333333332,829.2) translate(32.95 14.4)"/><use xlink:href="#q" transform="matrix(1,0,0,1,987.7333333333332,829.2) translate(94.85000000000001 14.4)"/><path d="M881 1028h-2v-46.53h2zm142.67-217H881v148.87h-2V809h142.67v-49.5h2z"/><path d="M881 1029h-2v-1.03h2zM1027.3 758.5h-9.27l4.64-14.26z"/><path d="M1028.68 759.5h-12.03l6.02-18.5zm-9.27-2h6.53l-3.26-10.03z"/><use xlink:href="#n" transform="matrix(1,0,0,1,822.1000000000001,959.8666666666668) translate(0 14.4)"/><use xlink:href="#o" transform="matrix(1,0,0,1,822.1000000000001,959.8666666666668) translate(17.95 14.4)"/><use xlink:href="#p" transform="matrix(1,0,0,1,822.1000000000001,959.8666666666668) translate(32.95 14.4)"/><use xlink:href="#q" transform="matrix(1,0,0,1,822.1000000000001,959.8666666666668) translate(94.85000000000001 14.4)"/><path d="M785 1049h33v2h-35V918.8h2zm0-151.8h-2v-77.7h2z"/><path d="M819 1051h-1.03v-2H819zM788.64 818.5h-9.28l4.64-14.26z"/><path d="M790 819.5h-12l6-18.5zm-9.26-2h6.52L784 807.47z"/><use xlink:href="#n" transform="matrix(1,0,0,1,726.1,897.2) translate(0 14.4)"/><use xlink:href="#o" transform="matrix(1,0,0,1,726.1,897.2) translate(17.95 14.4)"/><use xlink:href="#p" transform="matrix(1,0,0,1,726.1,897.2) translate(32.95 14.4)"/><use xlink:href="#q" transform="matrix(1,0,0,1,726.1,897.2) translate(94.85000000000001 14.4)"/><path d="M1160 931.27h570v60h-570z" stroke="#000" stroke-width="2" fill="#fff"/><use xlink:href="#r" transform="matrix(1,0,0,1,1165,936.2666666666667) translate(231.55 30.025)"/><use xlink:href="#s" transform="matrix(1,0,0,1,1165,936.2666666666667) translate(280.45000000000005 30.025)"/><path d="M1646 1158.67V1204h20l-40 36-40-36h20v-45.33z" stroke="#ef8d22" stroke-width="2" fill="#fff"/><use xlink:href="#b" transform="matrix(1,0,0,1,1591,1163.67) translate(4.024999999999999 28.799999999999997)"/><use xlink:href="#t" transform="matrix(1,0,0,1,1591,1163.67) translate(17.275 50.4)"/><path d="M1486 1020h160v160h-160z" stroke="#ef8d22" stroke-width="2" fill="#fff"/><path d="M1506 1028.73h120v42.54h-120z" stroke="#19967d" stroke-width="2" fill="#fff"/><use xlink:href="#u" transform="matrix(1,0,0,1,1511,1033.7333333333333) translate(6.5388888888888985 10.844444444444445)"/><use xlink:href="#v" transform="matrix(1,0,0,1,1511,1033.7333333333333) translate(72.6222222222222 10.844444444444445)"/><use xlink:href="#w" transform="matrix(1,0,0,1,1511,1033.7333333333333) translate(36.925925925925924 27.11111111111111)"/><path d="M1504 1049v2h-47.5v-2zm-111-9.8h-2v-28.43h2z"/><path d="M1505 1051h-1.03v-2h1.03zM1396.64 1009.77h-9.28l4.64-14.27z"/><path d="M1398 1010.77h-12l6-18.5zm-9.26-2h6.52l-3.26-10.03z"/><g><use xlink:href="#n" transform="matrix(1,0,0,1,1340.6922535211265,1039.2) translate(0 14.4)"/><use xlink:href="#o" transform="matrix(1,0,0,1,1340.6922535211265,1039.2) translate(17.95 14.4)"/><use xlink:href="#p" transform="matrix(1,0,0,1,1340.6922535211265,1039.2) translate(32.95 14.4)"/><use xlink:href="#q" transform="matrix(1,0,0,1,1340.6922535211265,1039.2) translate(94.85000000000001 14.4)"/></g><path d="M1506 1080h120v42.53h-120z" stroke="#19967d" stroke-width="2" fill="#fff"/><g><use xlink:href="#x" transform="matrix(1,0,0,1,1511,1085) translate(8.007407407407413 10.844444444444445)"/><use xlink:href="#y" transform="matrix(1,0,0,1,1511,1085) translate(68.89444444444445 10.844444444444445)"/><use xlink:href="#z" transform="matrix(1,0,0,1,1511,1085) translate(18.49413580246913 27.11111111111111)"/><use xlink:href="#A" transform="matrix(1,0,0,1,1511,1085) translate(56.1108024691358 27.11111111111111)"/></g><path d="M1777.26 1102.27H1628v-2h147.26v-40.6h2zm0-64.2h-2V819.5h2z"/><path d="M1628.03 1102.27H1627v-2h1.03zM1780.9 818.5h-9.28l4.64-14.26z"/><path d="M1782.27 819.5h-12.02l6-18.5zm-9.27-2h6.52l-3.26-10.03z"/><g><use xlink:href="#n" transform="matrix(1,0,0,1,1718.3573099415205,1038.0771146501766) translate(0 14.4)"/><use xlink:href="#o" transform="matrix(1,0,0,1,1718.3573099415205,1038.0771146501766) translate(17.95 14.4)"/><use xlink:href="#p" transform="matrix(1,0,0,1,1718.3573099415205,1038.0771146501766) translate(32.95 14.4)"/><use xlink:href="#q" transform="matrix(1,0,0,1,1718.3573099415205,1038.0771146501766) translate(94.85000000000001 14.4)"/></g><path d="M1506 1131.27h120v42.53h-120z" stroke="#19967d" stroke-width="2" fill="#fff"/><g><use xlink:href="#B" transform="matrix(1,0,0,1,1511,1136.266666666721) translate(34.08302469135803 19.094444444444445)"/></g><path d="M1803 1153.53h-175v-2h173v-91.85h2zm0-115.45h-2V819.5h2z"/><path d="M1628.03 1153.53H1627v-2h1.03zM1806.62 818.5h-9.27l4.64-14.26z"/><path d="M1808 819.5h-12.02l6-18.5zm-9.27-2h6.52l-3.26-10.03zM1365 1151.53h139v2h-141v-92.73h2zm0-112.33h-2v-28.43h2z"/><path d="M1505 1153.53h-1.03v-2h1.03zM1368.64 1009.77h-9.28l4.64-14.27z"/><path d="M1370 1010.77h-12l6-18.5zm-9.26-2h6.52l-3.26-10.03z"/></g><defs><path d="M127-220V0H93v-220H8v-28h204v28h-85" id="C"/><path d="M24-231v-30h32v30H24zM24 0v-190h32V0H24" id="D"/><path d="M210-169c-67 3-38 105-44 169h-31v-121c0-29-5-50-35-48C34-165 62-65 56 0H25l-1-190h30c1 10-1 24 2 32 10-44 99-50 107 0 11-21 27-35 58-36 85-2 47 119 55 194h-31v-121c0-29-5-49-35-48" id="E"/><path d="M100-194c63 0 86 42 84 106H49c0 40 14 67 53 68 26 1 43-12 49-29l28 8c-11 28-37 45-77 45C44 4 14-33 15-96c1-61 26-98 85-98zm52 81c6-60-76-77-97-28-3 7-6 17-6 28h103" id="F"/><path d="M24 0v-261h32V0H24" id="G"/><path d="M117-194c89-4 53 116 60 194h-32v-121c0-31-8-49-39-48C34-167 62-67 57 0H25l-1-190h30c1 10-1 24 2 32 11-22 29-35 61-36" id="H"/><g id="a"><use transform="matrix(0.05,0,0,0.05,0,0)" xlink:href="#C"/><use transform="matrix(0.05,0,0,0.05,10.3,0)" xlink:href="#D"/><use transform="matrix(0.05,0,0,0.05,14.25,0)" xlink:href="#E"/><use transform="matrix(0.05,0,0,0.05,29.200000000000003,0)" xlink:href="#F"/><use transform="matrix(0.05,0,0,0.05,39.2,0)" xlink:href="#G"/><use transform="matrix(0.05,0,0,0.05,43.150000000000006,0)" xlink:href="#D"/><use transform="matrix(0.05,0,0,0.05,47.10000000000001,0)" xlink:href="#H"/><use transform="matrix(0.05,0,0,0.05,57.1,0)" xlink:href="#F"/></g><path fill="#ef8d22" d="M212-179c-10-28-35-45-73-45-59 0-87 40-87 99 0 60 29 101 89 101 43 0 62-24 78-52l27 14C228-24 195 4 139 4 59 4 22-46 18-125c-6-104 99-153 187-111 19 9 31 26 39 46" id="I"/><path fill="#ef8d22" d="M100-194c62-1 85 37 85 99 1 63-27 99-86 99S16-35 15-95c0-66 28-99 85-99zM99-20c44 1 53-31 53-75 0-43-8-75-51-75s-53 32-53 75 10 74 51 75" id="J"/><path fill="#ef8d22" d="M117-194c89-4 53 116 60 194h-32v-121c0-31-8-49-39-48C34-167 62-67 57 0H25l-1-190h30c1 10-1 24 2 32 11-22 29-35 61-36" id="K"/><path fill="#ef8d22" d="M59-47c-2 24 18 29 38 22v24C64 9 27 4 27-40v-127H5v-23h24l9-43h21v43h35v23H59v120" id="L"/><path fill="#ef8d22" d="M141-36C126-15 110 5 73 4 37 3 15-17 15-53c-1-64 63-63 125-63 3-35-9-54-41-54-24 1-41 7-42 31l-33-3c5-37 33-52 76-52 45 0 72 20 72 64v82c-1 20 7 32 28 27v20c-31 9-61-2-59-35zM48-53c0 20 12 33 32 33 41-3 63-29 60-74-43 2-92-5-92 41" id="M"/><path fill="#ef8d22" d="M96-169c-40 0-48 33-48 73s9 75 48 75c24 0 41-14 43-38l32 2c-6 37-31 61-74 61-59 0-76-41-82-99-10-93 101-131 147-64 4 7 5 14 7 22l-32 3c-4-21-16-35-41-35" id="N"/><g id="b"><use transform="matrix(0.05,0,0,0.05,0,0)" xlink:href="#I"/><use transform="matrix(0.05,0,0,0.05,12.950000000000001,0)" xlink:href="#J"/><use transform="matrix(0.05,0,0,0.05,22.950000000000003,0)" xlink:href="#K"/><use transform="matrix(0.05,0,0,0.05,32.95,0)" xlink:href="#L"/><use transform="matrix(0.05,0,0,0.05,37.95,0)" xlink:href="#M"/><use transform="matrix(0.05,0,0,0.05,47.95,0)" xlink:href="#N"/><use transform="matrix(0.05,0,0,0.05,56.95,0)" xlink:href="#L"/></g><path fill="#ef8d22" d="M210-169c-67 3-38 105-44 169h-31v-121c0-29-5-50-35-48C34-165 62-65 56 0H25l-1-190h30c1 10-1 24 2 32 10-44 99-50 107 0 11-21 27-35 58-36 85-2 47 119 55 194h-31v-121c0-29-5-49-35-48" id="O"/><use transform="matrix(0.05,0,0,0.05,0,0)" xlink:href="#O" id="c"/><path fill="#c92d39" d="M30-248c118-7 216 8 213 122C240-48 200 0 122 0H30v-248zM63-27c89 8 146-16 146-99s-60-101-146-95v194" id="P"/><path fill="#c92d39" d="M24-231v-30h32v30H24zM24 0v-190h32V0H24" id="Q"/><path fill="#c92d39" d="M141-36C126-15 110 5 73 4 37 3 15-17 15-53c-1-64 63-63 125-63 3-35-9-54-41-54-24 1-41 7-42 31l-33-3c5-37 33-52 76-52 45 0 72 20 72 64v82c-1 20 7 32 28 27v20c-31 9-61-2-59-35zM48-53c0 20 12 33 32 33 41-3 63-29 60-74-43 2-92-5-92 41" id="R"/><path fill="#c92d39" d="M115-194c53 0 69 39 70 98 0 66-23 100-70 100C84 3 66-7 56-30L54 0H23l1-261h32v101c10-23 28-34 59-34zm-8 174c40 0 45-34 45-75 0-40-5-75-45-74-42 0-51 32-51 76 0 43 10 73 51 73" id="S"/><path fill="#c92d39" d="M100-194c63 0 86 42 84 106H49c0 40 14 67 53 68 26 1 43-12 49-29l28 8c-11 28-37 45-77 45C44 4 14-33 15-96c1-61 26-98 85-98zm52 81c6-60-76-77-97-28-3 7-6 17-6 28h103" id="T"/><path fill="#c92d39" d="M59-47c-2 24 18 29 38 22v24C64 9 27 4 27-40v-127H5v-23h24l9-43h21v43h35v23H59v120" id="U"/><path fill="#c92d39" d="M135-143c-3-34-86-38-87 0 15 53 115 12 119 90S17 21 10-45l28-5c4 36 97 45 98 0-10-56-113-15-118-90-4-57 82-63 122-42 12 7 21 19 24 35" id="V"/><g id="d"><use transform="matrix(0.05,0,0,0.05,0,0)" xlink:href="#P"/><use transform="matrix(0.05,0,0,0.05,12.950000000000001,0)" xlink:href="#Q"/><use transform="matrix(0.05,0,0,0.05,16.900000000000002,0)" xlink:href="#R"/><use transform="matrix(0.05,0,0,0.05,26.900000000000002,0)" xlink:href="#S"/><use transform="matrix(0.05,0,0,0.05,36.900000000000006,0)" xlink:href="#T"/><use transform="matrix(0.05,0,0,0.05,46.900000000000006,0)" xlink:href="#U"/><use transform="matrix(0.05,0,0,0.05,51.900000000000006,0)" xlink:href="#T"/><use transform="matrix(0.05,0,0,0.05,61.900000000000006,0)" xlink:href="#V"/></g><path fill="#19967d" d="M140-251c81 0 123 46 123 126C263-46 219 4 140 4 59 4 17-45 17-125s42-126 123-126zm0 227c63 0 89-41 89-101s-29-99-89-99c-61 0-89 39-89 99S79-25 140-24" id="W"/><path fill="#19967d" d="M115-194c55 1 70 41 70 98S169 2 115 4C84 4 66-9 55-30l1 105H24l-1-265h31l2 30c10-21 28-34 59-34zm-8 174c40 0 45-34 45-75s-6-73-45-74c-42 0-51 32-51 76 0 43 10 73 51 73" id="X"/><path fill="#19967d" d="M100-194c63 0 86 42 84 106H49c0 40 14 67 53 68 26 1 43-12 49-29l28 8c-11 28-37 45-77 45C44 4 14-33 15-96c1-61 26-98 85-98zm52 81c6-60-76-77-97-28-3 7-6 17-6 28h103" id="Y"/><path fill="#19967d" d="M114-163C36-179 61-72 57 0H25l-1-190h30c1 12-1 29 2 39 6-27 23-49 58-41v29" id="Z"/><path fill="#19967d" d="M141-36C126-15 110 5 73 4 37 3 15-17 15-53c-1-64 63-63 125-63 3-35-9-54-41-54-24 1-41 7-42 31l-33-3c5-37 33-52 76-52 45 0 72 20 72 64v82c-1 20 7 32 28 27v20c-31 9-61-2-59-35zM48-53c0 20 12 33 32 33 41-3 63-29 60-74-43 2-92-5-92 41" id="aa"/><path fill="#19967d" d="M59-47c-2 24 18 29 38 22v24C64 9 27 4 27-40v-127H5v-23h24l9-43h21v43h35v23H59v120" id="ab"/><path fill="#19967d" d="M24-231v-30h32v30H24zM24 0v-190h32V0H24" id="ac"/><path fill="#19967d" d="M100-194c62-1 85 37 85 99 1 63-27 99-86 99S16-35 15-95c0-66 28-99 85-99zM99-20c44 1 53-31 53-75 0-43-8-75-51-75s-53 32-53 75 10 74 51 75" id="ad"/><path fill="#19967d" d="M117-194c89-4 53 116 60 194h-32v-121c0-31-8-49-39-48C34-167 62-67 57 0H25l-1-190h30c1 10-1 24 2 32 11-22 29-35 61-36" id="ae"/><path fill="#19967d" d="M33-154v-36h34v36H33zM33 0v-36h34V0H33" id="af"/><g id="e"><use transform="matrix(0.03765432098765432,0,0,0.03765432098765432,0,0)" xlink:href="#W"/><use transform="matrix(0.03765432098765432,0,0,0.03765432098765432,10.543209876543209,0)" xlink:href="#X"/><use transform="matrix(0.03765432098765432,0,0,0.03765432098765432,18.074074074074073,0)" xlink:href="#Y"/><use transform="matrix(0.03765432098765432,0,0,0.03765432098765432,25.604938271604937,0)" xlink:href="#Z"/><use transform="matrix(0.03765432098765432,0,0,0.03765432098765432,30.0858024691358,0)" xlink:href="#aa"/><use transform="matrix(0.03765432098765432,0,0,0.03765432098765432,37.61666666666666,0)" xlink:href="#ab"/><use transform="matrix(0.03765432098765432,0,0,0.03765432098765432,41.38209876543208,0)" xlink:href="#ac"/><use transform="matrix(0.03765432098765432,0,0,0.03765432098765432,44.35679012345678,0)" xlink:href="#ad"/><use transform="matrix(0.03765432098765432,0,0,0.03765432098765432,51.88765432098765,0)" xlink:href="#ae"/><use transform="matrix(0.03765432098765432,0,0,0.03765432098765432,59.41851851851851,0)" xlink:href="#af"/></g><path fill="#19967d" d="M127-220V0H93v-220H8v-28h204v28h-85" id="ag"/><g id="f"><use transform="matrix(0.03765432098765432,0,0,0.03765432098765432,0,0)" xlink:href="#ag"/><use transform="matrix(0.03765432098765432,0,0,0.03765432098765432,6.740123456790123,0)" xlink:href="#ad"/><use transform="matrix(0.03765432098765432,0,0,0.03765432098765432,14.270987654320987,0)" xlink:href="#Y"/></g><path fill="#19967d" d="M210-169c-67 3-38 105-44 169h-31v-121c0-29-5-50-35-48C34-165 62-65 56 0H25l-1-190h30c1 10-1 24 2 32 10-44 99-50 107 0 11-21 27-35 58-36 85-2 47 119 55 194h-31v-121c0-29-5-49-35-48" id="ah"/><path fill="#19967d" d="M84 4C-5 8 30-112 23-190h32v120c0 31 7 50 39 49 72-2 45-101 50-169h31l1 190h-30c-1-10 1-25-2-33-11 22-28 36-60 37" id="ai"/><g id="g"><use transform="matrix(0.03765432098765432,0,0,0.03765432098765432,0,0)" xlink:href="#aa"/><use transform="matrix(0.03765432098765432,0,0,0.03765432098765432,7.530864197530864,0)" xlink:href="#ah"/><use transform="matrix(0.03765432098765432,0,0,0.03765432098765432,18.789506172839506,0)" xlink:href="#X"/><use transform="matrix(0.03765432098765432,0,0,0.03765432098765432,26.32037037037037,0)" xlink:href="#ai"/><use transform="matrix(0.03765432098765432,0,0,0.03765432098765432,33.85123456790123,0)" xlink:href="#ab"/><use transform="matrix(0.03765432098765432,0,0,0.03765432098765432,37.61666666666666,0)" xlink:href="#aa"/><use transform="matrix(0.03765432098765432,0,0,0.03765432098765432,45.14753086419752,0)" xlink:href="#ab"/><use transform="matrix(0.03765432098765432,0,0,0.03765432098765432,48.91296296296295,0)" xlink:href="#ac"/><use transform="matrix(0.03765432098765432,0,0,0.03765432098765432,51.88765432098764,0)" xlink:href="#ad"/><use transform="matrix(0.03765432098765432,0,0,0.03765432098765432,59.41851851851851,0)" xlink:href="#ae"/></g><path fill="#ef8d22" d="M118-107v75H92v-75H18v-26h74v-75h26v75h74v26h-74" id="aj"/><path fill="#ef8d22" d="M27 0v-27h64v-190l-56 39v-29l58-41h29v221h61V0H27" id="ak"/><g id="i"><use transform="matrix(0.05,0,0,0.05,0,0)" xlink:href="#O"/><use transform="matrix(0.05,0,0,0.05,14.950000000000001,0)" xlink:href="#aj"/><use transform="matrix(0.05,0,0,0.05,25.450000000000003,0)" xlink:href="#ak"/></g><path fill="#19967d" d="M30-248c87 1 191-15 191 75 0 78-77 80-158 76V0H30v-248zm33 125c57 0 124 11 124-50 0-59-68-47-124-48v98" id="al"/><path fill="#19967d" d="M106-169C34-169 62-67 57 0H25v-261h32l-1 103c12-21 28-36 61-36 89 0 53 116 60 194h-32v-121c2-32-8-49-39-48" id="am"/><path fill="#19967d" d="M179-190L93 31C79 59 56 82 12 73V49c39 6 53-20 64-50L1-190h34L92-34l54-156h33" id="an"/><path fill="#19967d" d="M135-143c-3-34-86-38-87 0 15 53 115 12 119 90S17 21 10-45l28-5c4 36 97 45 98 0-10-56-113-15-118-90-4-57 82-63 122-42 12 7 21 19 24 35" id="ao"/><g id="j"><use transform="matrix(0.03765432098765432,0,0,0.03765432098765432,0,0)" xlink:href="#al"/><use transform="matrix(0.03765432098765432,0,0,0.03765432098765432,9.037037037037036,0)" xlink:href="#am"/><use transform="matrix(0.03765432098765432,0,0,0.03765432098765432,16.5679012345679,0)" xlink:href="#an"/><use transform="matrix(0.03765432098765432,0,0,0.03765432098765432,23.345679012345677,0)" xlink:href="#ao"/><use transform="matrix(0.03765432098765432,0,0,0.03765432098765432,30.123456790123456,0)" xlink:href="#ac"/><use transform="matrix(0.03765432098765432,0,0,0.03765432098765432,33.09814814814815,0)" xlink:href="#ad"/><use transform="matrix(0.03765432098765432,0,0,0.03765432098765432,40.629012345679016,0)" xlink:href="#ab"/><use transform="matrix(0.03765432098765432,0,0,0.03765432098765432,44.394444444444446,0)" xlink:href="#am"/><use transform="matrix(0.03765432098765432,0,0,0.03765432098765432,51.925308641975306,0)" xlink:href="#Y"/><use transform="matrix(0.03765432098765432,0,0,0.03765432098765432,59.456172839506166,0)" xlink:href="#Z"/><use transform="matrix(0.03765432098765432,0,0,0.03765432098765432,63.93703703703703,0)" xlink:href="#aa"/><use transform="matrix(0.03765432098765432,0,0,0.03765432098765432,71.46790123456789,0)" xlink:href="#X"/><use transform="matrix(0.03765432098765432,0,0,0.03765432098765432,78.99876543209876,0)" xlink:href="#an"/><use transform="matrix(0.03765432098765432,0,0,0.03765432098765432,85.77654320987652,0)" xlink:href="#af"/></g><path fill="#19967d" d="M206 0h-36l-40-164L89 0H53L-1-190h32L70-26l43-164h34l41 164 42-164h31" id="ap"/><path fill="#19967d" d="M24 0v-261h32V0H24" id="aq"/><path fill="#19967d" d="M143 0L79-87 56-68V0H24v-261h32v163l83-92h37l-77 82L181 0h-38" id="ar"/><g id="k"><use transform="matrix(0.03765432098765432,0,0,0.03765432098765432,0,0)" xlink:href="#ap"/><use transform="matrix(0.03765432098765432,0,0,0.03765432098765432,9.752469135802468,0)" xlink:href="#aa"/><use transform="matrix(0.03765432098765432,0,0,0.03765432098765432,17.28333333333333,0)" xlink:href="#aq"/><use transform="matrix(0.03765432098765432,0,0,0.03765432098765432,20.258024691358024,0)" xlink:href="#ar"/></g><path fill="#ff8f80" d="M127-220V0H93v-220H8v-28h204v28h-85" id="as"/><path fill="#ff8f80" d="M100-194c62-1 85 37 85 99 1 63-27 99-86 99S16-35 15-95c0-66 28-99 85-99zM99-20c44 1 53-31 53-75 0-43-8-75-51-75s-53 32-53 75 10 74 51 75" id="at"/><path fill="#ff8f80" d="M100-194c63 0 86 42 84 106H49c0 40 14 67 53 68 26 1 43-12 49-29l28 8c-11 28-37 45-77 45C44 4 14-33 15-96c1-61 26-98 85-98zm52 81c6-60-76-77-97-28-3 7-6 17-6 28h103" id="au"/><g id="l"><use transform="matrix(0.05,0,0,0.05,0,0)" xlink:href="#as"/><use transform="matrix(0.05,0,0,0.05,8.950000000000001,0)" xlink:href="#at"/><use transform="matrix(0.05,0,0,0.05,18.950000000000003,0)" xlink:href="#au"/></g><path fill="#ff8f80" d="M205 0l-28-72H64L36 0H1l101-248h38L239 0h-34zm-38-99l-47-123c-12 45-31 82-46 123h93" id="av"/><path fill="#ff8f80" d="M210-169c-67 3-38 105-44 169h-31v-121c0-29-5-50-35-48C34-165 62-65 56 0H25l-1-190h30c1 10-1 24 2 32 10-44 99-50 107 0 11-21 27-35 58-36 85-2 47 119 55 194h-31v-121c0-29-5-49-35-48" id="aw"/><path fill="#ff8f80" d="M115-194c55 1 70 41 70 98S169 2 115 4C84 4 66-9 55-30l1 105H24l-1-265h31l2 30c10-21 28-34 59-34zm-8 174c40 0 45-34 45-75s-6-73-45-74c-42 0-51 32-51 76 0 43 10 73 51 73" id="ax"/><path fill="#ff8f80" d="M84 4C-5 8 30-112 23-190h32v120c0 31 7 50 39 49 72-2 45-101 50-169h31l1 190h-30c-1-10 1-25-2-33-11 22-28 36-60 37" id="ay"/><path fill="#ff8f80" d="M59-47c-2 24 18 29 38 22v24C64 9 27 4 27-40v-127H5v-23h24l9-43h21v43h35v23H59v120" id="az"/><path fill="#ff8f80" d="M141-36C126-15 110 5 73 4 37 3 15-17 15-53c-1-64 63-63 125-63 3-35-9-54-41-54-24 1-41 7-42 31l-33-3c5-37 33-52 76-52 45 0 72 20 72 64v82c-1 20 7 32 28 27v20c-31 9-61-2-59-35zM48-53c0 20 12 33 32 33 41-3 63-29 60-74-43 2-92-5-92 41" id="aA"/><path fill="#ff8f80" d="M24-231v-30h32v30H24zM24 0v-190h32V0H24" id="aB"/><path fill="#ff8f80" d="M117-194c89-4 53 116 60 194h-32v-121c0-31-8-49-39-48C34-167 62-67 57 0H25l-1-190h30c1 10-1 24 2 32 11-22 29-35 61-36" id="aC"/><g id="m"><use transform="matrix(0.05,0,0,0.05,0,0)" xlink:href="#av"/><use transform="matrix(0.05,0,0,0.05,12,0)" xlink:href="#aw"/><use transform="matrix(0.05,0,0,0.05,26.950000000000003,0)" xlink:href="#ax"/><use transform="matrix(0.05,0,0,0.05,36.95,0)" xlink:href="#ay"/><use transform="matrix(0.05,0,0,0.05,46.95,0)" xlink:href="#az"/><use transform="matrix(0.05,0,0,0.05,51.95,0)" xlink:href="#aA"/><use transform="matrix(0.05,0,0,0.05,61.95,0)" xlink:href="#az"/><use transform="matrix(0.05,0,0,0.05,66.95,0)" xlink:href="#aB"/><use transform="matrix(0.05,0,0,0.05,70.9,0)" xlink:href="#at"/><use transform="matrix(0.05,0,0,0.05,80.9,0)" xlink:href="#aC"/></g><path fill="#0c7cba" d="M24-231v-30h32v30H24zM24 0v-190h32V0H24" id="aD"/><path fill="#0c7cba" d="M135-143c-3-34-86-38-87 0 15 53 115 12 119 90S17 21 10-45l28-5c4 36 97 45 98 0-10-56-113-15-118-90-4-57 82-63 122-42 12 7 21 19 24 35" id="aE"/><g id="n"><use transform="matrix(0.05,0,0,0.05,0,0)" xlink:href="#aD"/><use transform="matrix(0.05,0,0,0.05,3.95,0)" xlink:href="#aE"/></g><path fill="#0c7cba" d="M141-36C126-15 110 5 73 4 37 3 15-17 15-53c-1-64 63-63 125-63 3-35-9-54-41-54-24 1-41 7-42 31l-33-3c5-37 33-52 76-52 45 0 72 20 72 64v82c-1 20 7 32 28 27v20c-31 9-61-2-59-35zM48-53c0 20 12 33 32 33 41-3 63-29 60-74-43 2-92-5-92 41" id="aF"/><use transform="matrix(0.05,0,0,0.05,0,0)" xlink:href="#aF" id="o"/><path fill="#0c7cba" d="M100-194c63 0 86 42 84 106H49c0 40 14 67 53 68 26 1 43-12 49-29l28 8c-11 28-37 45-77 45C44 4 14-33 15-96c1-61 26-98 85-98zm52 81c6-60-76-77-97-28-3 7-6 17-6 28h103" id="aG"/><path fill="#0c7cba" d="M114-163C36-179 61-72 57 0H25l-1-190h30c1 12-1 29 2 39 6-27 23-49 58-41v29" id="aH"/><path fill="#0c7cba" d="M108 0H70L1-190h34L89-25l56-165h34" id="aI"/><path fill="#0c7cba" d="M96-169c-40 0-48 33-48 73s9 75 48 75c24 0 41-14 43-38l32 2c-6 37-31 61-74 61-59 0-76-41-82-99-10-93 101-131 147-64 4 7 5 14 7 22l-32 3c-4-21-16-35-41-35" id="aJ"/><g id="p"><use transform="matrix(0.05,0,0,0.05,0,0)" xlink:href="#aE"/><use transform="matrix(0.05,0,0,0.05,9,0)" xlink:href="#aG"/><use transform="matrix(0.05,0,0,0.05,19,0)" xlink:href="#aH"/><use transform="matrix(0.05,0,0,0.05,24.95,0)" xlink:href="#aI"/><use transform="matrix(0.05,0,0,0.05,33.95,0)" xlink:href="#aD"/><use transform="matrix(0.05,0,0,0.05,37.900000000000006,0)" xlink:href="#aJ"/><use transform="matrix(0.05,0,0,0.05,46.900000000000006,0)" xlink:href="#aG"/></g><path fill="#0c7cba" d="M101-234c-31-9-42 10-38 44h38v23H63V0H32v-167H5v-23h27c-7-52 17-82 69-68v24" id="aK"/><path fill="#0c7cba" d="M100-194c62-1 85 37 85 99 1 63-27 99-86 99S16-35 15-95c0-66 28-99 85-99zM99-20c44 1 53-31 53-75 0-43-8-75-51-75s-53 32-53 75 10 74 51 75" id="aL"/><g id="q"><use transform="matrix(0.05,0,0,0.05,0,0)" xlink:href="#aK"/><use transform="matrix(0.05,0,0,0.05,5,0)" xlink:href="#aL"/><use transform="matrix(0.05,0,0,0.05,15,0)" xlink:href="#aH"/></g><path fill="#c92d39" d="M197 0v-115H63V0H30v-248h33v105h134v-105h34V0h-34" id="aM"/><path fill="#c92d39" d="M114-163C36-179 61-72 57 0H25l-1-190h30c1 12-1 29 2 39 6-27 23-49 58-41v29" id="aN"/><g id="r"><use transform="matrix(0.05,0,0,0.05,0,0)" xlink:href="#aM"/><use transform="matrix(0.05,0,0,0.05,12.950000000000001,0)" xlink:href="#T"/><use transform="matrix(0.05,0,0,0.05,22.950000000000003,0)" xlink:href="#R"/><use transform="matrix(0.05,0,0,0.05,32.95,0)" xlink:href="#aN"/><use transform="matrix(0.05,0,0,0.05,38.900000000000006,0)" xlink:href="#U"/></g><path fill="#c92d39" d="M96-169c-40 0-48 33-48 73s9 75 48 75c24 0 41-14 43-38l32 2c-6 37-31 61-74 61-59 0-76-41-82-99-10-93 101-131 147-64 4 7 5 14 7 22l-32 3c-4-21-16-35-41-35" id="aO"/><path fill="#c92d39" d="M143 0L79-87 56-68V0H24v-261h32v163l83-92h37l-77 82L181 0h-38" id="aP"/><g id="s"><use transform="matrix(0.05,0,0,0.05,0,0)" xlink:href="#R"/><use transform="matrix(0.05,0,0,0.05,10,0)" xlink:href="#U"/><use transform="matrix(0.05,0,0,0.05,15,0)" xlink:href="#U"/><use transform="matrix(0.05,0,0,0.05,20,0)" xlink:href="#R"/><use transform="matrix(0.05,0,0,0.05,30,0)" xlink:href="#aO"/><use transform="matrix(0.05,0,0,0.05,39,0)" xlink:href="#aP"/></g><path fill="#ef8d22" d="M101-251c82-7 93 87 43 132L82-64C71-53 59-42 53-27h129V0H18c2-99 128-94 128-182 0-28-16-43-45-43s-46 15-49 41l-32-3c6-41 34-60 81-64" id="aQ"/><g id="t"><use transform="matrix(0.05,0,0,0.05,0,0)" xlink:href="#O"/><use transform="matrix(0.05,0,0,0.05,14.950000000000001,0)" xlink:href="#aj"/><use transform="matrix(0.05,0,0,0.05,25.450000000000003,0)" xlink:href="#aQ"/></g><path fill="#19967d" d="M63-220v92h138v28H63V0H30v-248h175v28H63" id="aR"/><path fill="#19967d" d="M16-82v-28h88v28H16" id="aS"/><g id="u"><use transform="matrix(0.03765432098765432,0,0,0.03765432098765432,0,0)" xlink:href="#aR"/><use transform="matrix(0.03765432098765432,0,0,0.03765432098765432,8.246296296296295,0)" xlink:href="#ad"/><use transform="matrix(0.03765432098765432,0,0,0.03765432098765432,15.777160493827159,0)" xlink:href="#aq"/><use transform="matrix(0.03765432098765432,0,0,0.03765432098765432,18.75185185185185,0)" xlink:href="#aq"/><use transform="matrix(0.03765432098765432,0,0,0.03765432098765432,21.726543209876542,0)" xlink:href="#ad"/><use transform="matrix(0.03765432098765432,0,0,0.03765432098765432,29.257407407407406,0)" xlink:href="#ap"/><use transform="matrix(0.03765432098765432,0,0,0.03765432098765432,39.00987654320987,0)" xlink:href="#aS"/><use transform="matrix(0.03765432098765432,0,0,0.03765432098765432,43.49074074074073,0)" xlink:href="#ai"/><use transform="matrix(0.03765432098765432,0,0,0.03765432098765432,51.021604938271594,0)" xlink:href="#X"/><use transform="matrix(0.03765432098765432,0,0,0.03765432098765432,58.552469135802454,0)" xlink:href="#af"/></g><g id="v"><use transform="matrix(0.03765432098765432,0,0,0.03765432098765432,0,0)" xlink:href="#am"/><use transform="matrix(0.03765432098765432,0,0,0.03765432098765432,7.530864197530864,0)" xlink:href="#Y"/><use transform="matrix(0.03765432098765432,0,0,0.03765432098765432,15.061728395061728,0)" xlink:href="#aa"/><use transform="matrix(0.03765432098765432,0,0,0.03765432098765432,22.59259259259259,0)" xlink:href="#Z"/><use transform="matrix(0.03765432098765432,0,0,0.03765432098765432,27.073456790123455,0)" xlink:href="#ab"/></g><path fill="#19967d" d="M96-169c-40 0-48 33-48 73s9 75 48 75c24 0 41-14 43-38l32 2c-6 37-31 61-74 61-59 0-76-41-82-99-10-93 101-131 147-64 4 7 5 14 7 22l-32 3c-4-21-16-35-41-35" id="aT"/><g id="w"><use transform="matrix(0.03765432098765432,0,0,0.03765432098765432,0,0)" xlink:href="#aa"/><use transform="matrix(0.03765432098765432,0,0,0.03765432098765432,7.530864197530864,0)" xlink:href="#ab"/><use transform="matrix(0.03765432098765432,0,0,0.03765432098765432,11.296296296296296,0)" xlink:href="#ab"/><use transform="matrix(0.03765432098765432,0,0,0.03765432098765432,15.061728395061728,0)" xlink:href="#aa"/><use transform="matrix(0.03765432098765432,0,0,0.03765432098765432,22.59259259259259,0)" xlink:href="#aT"/><use transform="matrix(0.03765432098765432,0,0,0.03765432098765432,29.370370370370367,0)" xlink:href="#ar"/></g><path fill="#19967d" d="M160-131c35 5 61 23 61 61C221 17 115-2 30 0v-248c76 3 177-17 177 60 0 33-19 50-47 57zm-97-11c50-1 110 9 110-42 0-47-63-36-110-37v79zm0 115c55-2 124 14 124-45 0-56-70-42-124-44v89" id="aU"/><g id="x"><use transform="matrix(0.03765432098765432,0,0,0.03765432098765432,0,0)" xlink:href="#aU"/><use transform="matrix(0.03765432098765432,0,0,0.03765432098765432,9.037037037037036,0)" xlink:href="#ac"/><use transform="matrix(0.03765432098765432,0,0,0.03765432098765432,12.011728395061727,0)" xlink:href="#ad"/><use transform="matrix(0.03765432098765432,0,0,0.03765432098765432,19.54259259259259,0)" xlink:href="#ah"/><use transform="matrix(0.03765432098765432,0,0,0.03765432098765432,30.801234567901233,0)" xlink:href="#Y"/><use transform="matrix(0.03765432098765432,0,0,0.03765432098765432,38.33209876543209,0)" xlink:href="#ab"/><use transform="matrix(0.03765432098765432,0,0,0.03765432098765432,42.09753086419753,0)" xlink:href="#Z"/><use transform="matrix(0.03765432098765432,0,0,0.03765432098765432,46.57839506172838,0)" xlink:href="#an"/><use transform="matrix(0.03765432098765432,0,0,0.03765432098765432,53.356172839506165,0)" xlink:href="#af"/></g><path fill="#19967d" d="M115-194c53 0 69 39 70 98 0 66-23 100-70 100C84 3 66-7 56-30L54 0H23l1-261h32v101c10-23 28-34 59-34zm-8 174c40 0 45-34 45-75 0-40-5-75-45-74-42 0-51 32-51 76 0 43 10 73 51 73" id="aV"/><path fill="#19967d" d="M85-194c31 0 48 13 60 33l-1-100h32l1 261h-30c-2-10 0-23-3-31C134-8 116 4 85 4 32 4 16-35 15-94c0-66 23-100 70-100zm9 24c-40 0-46 34-46 75 0 40 6 74 45 74 42 0 51-32 51-76 0-42-9-74-50-73" id="aW"/><g id="y"><use transform="matrix(0.03765432098765432,0,0,0.03765432098765432,0,0)" xlink:href="#aV"/><use transform="matrix(0.03765432098765432,0,0,0.03765432098765432,7.530864197530864,0)" xlink:href="#aq"/><use transform="matrix(0.03765432098765432,0,0,0.03765432098765432,10.505555555555555,0)" xlink:href="#ad"/><use transform="matrix(0.03765432098765432,0,0,0.03765432098765432,18.03641975308642,0)" xlink:href="#ad"/><use transform="matrix(0.03765432098765432,0,0,0.03765432098765432,25.567283950617284,0)" xlink:href="#aW"/></g><path fill="#19967d" d="M177-190C167-65 218 103 67 71c-23-6-38-20-44-43l32-5c15 47 100 32 89-28v-30C133-14 115 1 83 1 29 1 15-40 15-95c0-56 16-97 71-98 29-1 48 16 59 35 1-10 0-23 2-32h30zM94-22c36 0 50-32 50-73 0-42-14-75-50-75-39 0-46 34-46 75s6 73 46 73" id="aX"/><g id="z"><use transform="matrix(0.03765432098765432,0,0,0.03765432098765432,0,0)" xlink:href="#ao"/><use transform="matrix(0.03765432098765432,0,0,0.03765432098765432,6.777777777777777,0)" xlink:href="#ai"/><use transform="matrix(0.03765432098765432,0,0,0.03765432098765432,14.30864197530864,0)" xlink:href="#aX"/><use transform="matrix(0.03765432098765432,0,0,0.03765432098765432,21.83950617283951,0)" xlink:href="#aa"/><use transform="matrix(0.03765432098765432,0,0,0.03765432098765432,29.37037037037037,0)" xlink:href="#Z"/></g><g id="A"><use transform="matrix(0.03765432098765432,0,0,0.03765432098765432,0,0)" xlink:href="#aT"/><use transform="matrix(0.03765432098765432,0,0,0.03765432098765432,6.777777777777777,0)" xlink:href="#am"/><use transform="matrix(0.03765432098765432,0,0,0.03765432098765432,14.30864197530864,0)" xlink:href="#Y"/><use transform="matrix(0.03765432098765432,0,0,0.03765432098765432,21.83950617283951,0)" xlink:href="#aT"/><use transform="matrix(0.03765432098765432,0,0,0.03765432098765432,28.617283950617285,0)" xlink:href="#ar"/></g><path fill="#19967d" d="M266 0h-40l-56-210L115 0H75L2-248h35L96-30l15-64 43-154h32l59 218 59-218h35" id="aY"/><g id="B"><use transform="matrix(0.03765432098765432,0,0,0.03765432098765432,0,0)" xlink:href="#aY"/><use transform="matrix(0.03765432098765432,0,0,0.03765432098765432,12.501234567901234,0)" xlink:href="#Y"/><use transform="matrix(0.03765432098765432,0,0,0.03765432098765432,20.032098765432096,0)" xlink:href="#ac"/><use transform="matrix(0.03765432098765432,0,0,0.03765432098765432,23.00679012345679,0)" xlink:href="#aX"/><use transform="matrix(0.03765432098765432,0,0,0.03765432098765432,30.537654320987652,0)" xlink:href="#am"/><use transform="matrix(0.03765432098765432,0,0,0.03765432098765432,38.068518518518516,0)" xlink:href="#ab"/></g></defs></g></svg>