<svg xmlns="http://www.w3.org/2000/svg" xmlns:xlink="http://www.w3.org/1999/xlink" xmlns:lucid="lucid" width="1185" height="581"><g transform="translate(0 1259)" lucid:page-tab-id="TeAfj18c61sp"><g class="lucid-layer" lucid:layer-id="tlu8379tpg_A" display="block"><path d="M180-901.33h160v120H180z" fill="#fff"/><use xlink:href="#a" transform="matrix(1,0,0,1,180,-901.33) translate(18.604999999999997 29.4)"/><use xlink:href="#b" transform="matrix(1,0,0,1,180,-901.33) translate(75.505 29.4)"/><use xlink:href="#c" transform="matrix(1,0,0,1,180,-901.33) translate(50.05499999999999 51)"/><use xlink:href="#d" transform="matrix(1,0,0,1,180,-901.33) translate(49.029999999999994 72.60000000000001)"/><use xlink:href="#e" transform="matrix(1,0,0,1,180,-901.33) translate(32.029999999999994 94.20000000000002)"/><path d="M844.88-699H181v-2h663.88z"/><path d="M181.03-699H180v-2h1.03zM916.76-700l-4.78 1.56v-3.12z"/><path d="M920-700l-8.02 2.6v-2.1l1.55-.5-1.55-.5v-2.1z"/><use xlink:href="#f" transform="matrix(1,0,0,1,844.8769662921349,-710.8000000000001) translate(0 14.4)"/><path d="M520-860v124h20l-40 36-40-36h20v-124z" stroke="#ef8d22" stroke-width="2" fill="#fff"/><use xlink:href="#g" transform="matrix(1,0,0,1,465.00000000000006,-855.0000000000001) translate(4.024999999999999 67.8)"/><use xlink:href="#h" transform="matrix(1,0,0,1,465.00000000000006,-855.0000000000001) translate(30 89.4)"/><path d="M700-860v124h20l-40 36-40-36h20v-124z" stroke="#ef8d22" stroke-width="2" fill="#fff"/><use xlink:href="#g" transform="matrix(1,-2.4492935982947064e-16,2.4492935982947064e-16,1,645,-855) translate(4.024999999999999 67.8)"/><use xlink:href="#i" transform="matrix(1,-2.4492935982947064e-16,2.4492935982947064e-16,1,645,-855) translate(19.75 89.4)"/><path d="M360-1020h160v160H360z" stroke="#ef8d22" stroke-width="2" fill="#fff"/><path d="M440-1240h340v100H440z" stroke="#000" stroke-width="2" fill="#fff"/><use xlink:href="#j" transform="matrix(1,0,0,1,444.9999999999999,-1235) translate(117.07499999999999 48.15)"/><path d="M380-1010h120v40H380z" stroke="#19967d" stroke-width="2" fill="#fff"/><use xlink:href="#k" transform="matrix(1,0,0,1,385,-1005.0000000000001) translate(22.69259259259259 10.844444444444445)"/><use xlink:href="#l" transform="matrix(1,0,0,1,385,-1005.0000000000001) translate(9.13703703703704 27.11111111111111)"/><use xlink:href="#m" transform="matrix(1,0,0,1,385,-1005.0000000000001) translate(75.29567901234569 27.11111111111111)"/><use xlink:href="#n" transform="matrix(1,0,0,1,385,-1005.0000000000001) translate(55 43.37777777777778)"/><path d="M380-960h120v40H380z" stroke="#19967d" stroke-width="2" fill="#fff"/><use xlink:href="#o" transform="matrix(1,0,0,1,385,-955.0000000000001) translate(23.426851851851854 10.844444444444445)"/><use xlink:href="#p" transform="matrix(1,0,0,1,385,-955.0000000000001) translate(19.284876543209883 27.11111111111111)"/><use xlink:href="#q" transform="matrix(1,0,0,1,385,-955.0000000000001) translate(55 43.37777777777778)"/><use xlink:href="#n" transform="matrix(1,0,0,1,385,-955.0000000000001) translate(55 59.644444444444446)"/><path d="M444.6-1074H441v62h-2v-64h5.6zm166.4 0h-50.6v-2H609v-44.5h2z"/><path d="M441-1011h-2v-1.03h2zM614.64-1121.5h-9.28l4.64-14.26z"/><path d="M616-1120.5h-12l6-18.5zm-9.26-2h6.52l-3.26-10.03z"/><use xlink:href="#r" transform="matrix(1,0,0,1,444.58920863309356,-1085.8) translate(0 14.4)"/><use xlink:href="#s" transform="matrix(1,0,0,1,444.58920863309356,-1085.8) translate(17.95 14.4)"/><use xlink:href="#t" transform="matrix(1,0,0,1,444.58920863309356,-1085.8) translate(32.95 14.4)"/><use xlink:href="#u" transform="matrix(1,0,0,1,444.58920863309356,-1085.8) translate(94.85000000000001 14.4)"/><path d="M655.8-939H502v-2h151.8v-69.48h2zm0-93.08h-2v-88.42h2z"/><path d="M502.03-939H501v-2h1.03zM659.45-1121.5h-9.27l4.63-14.26z"/><path d="M660.82-1120.5H648.8l6-18.5zm-9.27-2h6.52l-3.26-10.03z"/><g><use xlink:href="#r" transform="matrix(1,0,0,1,596.9131147540983,-1032.0777883636126) translate(0 14.4)"/><use xlink:href="#s" transform="matrix(1,0,0,1,596.9131147540983,-1032.0777883636126) translate(17.95 14.4)"/><use xlink:href="#t" transform="matrix(1,0,0,1,596.9131147540983,-1032.0777883636126) translate(32.95 14.4)"/><use xlink:href="#u" transform="matrix(1,0,0,1,596.9131147540983,-1032.0777883636126) translate(94.85000000000001 14.4)"/></g><path d="M540-920h160v60H540z" stroke="#ef8d22" stroke-width="2" fill="#fff"/><path d="M560-910h120v40H560z" stroke="#19967d" stroke-width="2" fill="#fff"/><g><use xlink:href="#v" transform="matrix(1,0,0,1,565,-905.0000000000001) translate(23.40802469135803 10.844444444444445)"/><use xlink:href="#w" transform="matrix(1,0,0,1,565,-905.0000000000001) translate(4.957407407407416 27.11111111111111)"/><use xlink:href="#n" transform="matrix(1,0,0,1,565,-905.0000000000001) translate(55 43.37777777777778)"/></g><path d="M750.8-889H682v-2h66.8v-78.3h2zm0-101.9h-2v-129.6h2z"/><path d="M682.03-889H681v-2h1.03zM754.43-1121.5h-9.28l4.64-14.26z"/><path d="M755.8-1120.5h-12.02l6-18.5zm-9.27-2h6.52l-3.26-10.03z"/><g><use xlink:href="#r" transform="matrix(1,0,0,1,691.8901639344263,-990.9049180327869) translate(0 14.4)"/><use xlink:href="#s" transform="matrix(1,0,0,1,691.8901639344263,-990.9049180327869) translate(17.95 14.4)"/><use xlink:href="#t" transform="matrix(1,0,0,1,691.8901639344263,-990.9049180327869) translate(32.95 14.4)"/><use xlink:href="#u" transform="matrix(1,0,0,1,691.8901639344263,-990.9049180327869) translate(94.85000000000001 14.4)"/></g><path d="M380-910h120v40H380z" stroke="#19967d" stroke-width="2" fill="#fff"/><g><use xlink:href="#x" transform="matrix(1,0,0,1,385,-905) translate(17.42098765432099 10.844444444444445)"/><use xlink:href="#y" transform="matrix(1,0,0,1,385,-905) translate(21.92067901234568 27.11111111111111)"/><use xlink:href="#q" transform="matrix(1,0,0,1,385,-905) translate(55 43.37777777777778)"/><use xlink:href="#n" transform="matrix(1,0,0,1,385,-905) translate(55 59.644444444444446)"/></g><path d="M502-890h23.33v-31.5" stroke="#000" stroke-width="2" fill="none"/><path d="M502.03-889H501v-2h1.03z"/><path d="M525.33-936.76l4.64 14.26h-9.27z" stroke="#000" stroke-width="2"/></g><defs><path fill="#c92d39" d="M197 0v-115H63V0H30v-248h33v105h134v-105h34V0h-34" id="z"/><path fill="#c92d39" d="M100-194c63 0 86 42 84 106H49c0 40 14 67 53 68 26 1 43-12 49-29l28 8c-11 28-37 45-77 45C44 4 14-33 15-96c1-61 26-98 85-98zm52 81c6-60-76-77-97-28-3 7-6 17-6 28h103" id="A"/><path fill="#c92d39" d="M141-36C126-15 110 5 73 4 37 3 15-17 15-53c-1-64 63-63 125-63 3-35-9-54-41-54-24 1-41 7-42 31l-33-3c5-37 33-52 76-52 45 0 72 20 72 64v82c-1 20 7 32 28 27v20c-31 9-61-2-59-35zM48-53c0 20 12 33 32 33 41-3 63-29 60-74-43 2-92-5-92 41" id="B"/><path fill="#c92d39" d="M24 0v-261h32V0H24" id="C"/><path fill="#c92d39" d="M59-47c-2 24 18 29 38 22v24C64 9 27 4 27-40v-127H5v-23h24l9-43h21v43h35v23H59v120" id="D"/><path fill="#c92d39" d="M106-169C34-169 62-67 57 0H25v-261h32l-1 103c12-21 28-36 61-36 89 0 53 116 60 194h-32v-121c2-32-8-49-39-48" id="E"/><g id="a"><use transform="matrix(0.05,0,0,0.05,0,0)" xlink:href="#z"/><use transform="matrix(0.05,0,0,0.05,12.950000000000001,0)" xlink:href="#A"/><use transform="matrix(0.05,0,0,0.05,22.950000000000003,0)" xlink:href="#B"/><use transform="matrix(0.05,0,0,0.05,32.95,0)" xlink:href="#C"/><use transform="matrix(0.05,0,0,0.05,36.900000000000006,0)" xlink:href="#D"/><use transform="matrix(0.05,0,0,0.05,41.900000000000006,0)" xlink:href="#E"/></g><path fill="#c92d39" d="M30 0v-248h187v28H63v79h144v27H63v87h162V0H30" id="F"/><path fill="#c92d39" d="M210-169c-67 3-38 105-44 169h-31v-121c0-29-5-50-35-48C34-165 62-65 56 0H25l-1-190h30c1 10-1 24 2 32 10-44 99-50 107 0 11-21 27-35 58-36 85-2 47 119 55 194h-31v-121c0-29-5-49-35-48" id="G"/><path fill="#c92d39" d="M117-194c89-4 53 116 60 194h-32v-121c0-31-8-49-39-48C34-167 62-67 57 0H25l-1-190h30c1 10-1 24 2 32 11-22 29-35 61-36" id="H"/><g id="b"><use transform="matrix(0.05,0,0,0.05,0,0)" xlink:href="#F"/><use transform="matrix(0.05,0,0,0.05,12,0)" xlink:href="#C"/><use transform="matrix(0.05,0,0,0.05,15.949999999999998,0)" xlink:href="#A"/><use transform="matrix(0.05,0,0,0.05,25.950000000000003,0)" xlink:href="#G"/><use transform="matrix(0.05,0,0,0.05,40.9,0)" xlink:href="#A"/><use transform="matrix(0.05,0,0,0.05,50.9,0)" xlink:href="#H"/><use transform="matrix(0.05,0,0,0.05,60.900000000000006,0)" xlink:href="#D"/></g><path fill="#19967d" d="M185-189c-5-48-123-54-124 2 14 75 158 14 163 119 3 78-121 87-175 55-17-10-28-26-33-46l33-7c5 56 141 63 141-1 0-78-155-14-162-118-5-82 145-84 179-34 5 7 8 16 11 25" id="I"/><path fill="#19967d" d="M100-194c63 0 86 42 84 106H49c0 40 14 67 53 68 26 1 43-12 49-29l28 8c-11 28-37 45-77 45C44 4 14-33 15-96c1-61 26-98 85-98zm52 81c6-60-76-77-97-28-3 7-6 17-6 28h103" id="J"/><path fill="#19967d" d="M114-163C36-179 61-72 57 0H25l-1-190h30c1 12-1 29 2 39 6-27 23-49 58-41v29" id="K"/><path fill="#19967d" d="M108 0H70L1-190h34L89-25l56-165h34" id="L"/><path fill="#19967d" d="M24-231v-30h32v30H24zM24 0v-190h32V0H24" id="M"/><path fill="#19967d" d="M96-169c-40 0-48 33-48 73s9 75 48 75c24 0 41-14 43-38l32 2c-6 37-31 61-74 61-59 0-76-41-82-99-10-93 101-131 147-64 4 7 5 14 7 22l-32 3c-4-21-16-35-41-35" id="N"/><g id="c"><use transform="matrix(0.05,0,0,0.05,0,0)" xlink:href="#I"/><use transform="matrix(0.05,0,0,0.05,12,0)" xlink:href="#J"/><use transform="matrix(0.05,0,0,0.05,22,0)" xlink:href="#K"/><use transform="matrix(0.05,0,0,0.05,27.950000000000003,0)" xlink:href="#L"/><use transform="matrix(0.05,0,0,0.05,36.95,0)" xlink:href="#M"/><use transform="matrix(0.05,0,0,0.05,40.900000000000006,0)" xlink:href="#N"/><use transform="matrix(0.05,0,0,0.05,49.900000000000006,0)" xlink:href="#J"/></g><path fill="#ef8d22" d="M212-179c-10-28-35-45-73-45-59 0-87 40-87 99 0 60 29 101 89 101 43 0 62-24 78-52l27 14C228-24 195 4 139 4 59 4 22-46 18-125c-6-104 99-153 187-111 19 9 31 26 39 46" id="O"/><path fill="#ef8d22" d="M100-194c62-1 85 37 85 99 1 63-27 99-86 99S16-35 15-95c0-66 28-99 85-99zM99-20c44 1 53-31 53-75 0-43-8-75-51-75s-53 32-53 75 10 74 51 75" id="P"/><path fill="#ef8d22" d="M117-194c89-4 53 116 60 194h-32v-121c0-31-8-49-39-48C34-167 62-67 57 0H25l-1-190h30c1 10-1 24 2 32 11-22 29-35 61-36" id="Q"/><path fill="#ef8d22" d="M59-47c-2 24 18 29 38 22v24C64 9 27 4 27-40v-127H5v-23h24l9-43h21v43h35v23H59v120" id="R"/><path fill="#ef8d22" d="M141-36C126-15 110 5 73 4 37 3 15-17 15-53c-1-64 63-63 125-63 3-35-9-54-41-54-24 1-41 7-42 31l-33-3c5-37 33-52 76-52 45 0 72 20 72 64v82c-1 20 7 32 28 27v20c-31 9-61-2-59-35zM48-53c0 20 12 33 32 33 41-3 63-29 60-74-43 2-92-5-92 41" id="S"/><path fill="#ef8d22" d="M96-169c-40 0-48 33-48 73s9 75 48 75c24 0 41-14 43-38l32 2c-6 37-31 61-74 61-59 0-76-41-82-99-10-93 101-131 147-64 4 7 5 14 7 22l-32 3c-4-21-16-35-41-35" id="T"/><g id="d"><use transform="matrix(0.05,0,0,0.05,0,0)" xlink:href="#O"/><use transform="matrix(0.05,0,0,0.05,12.950000000000001,0)" xlink:href="#P"/><use transform="matrix(0.05,0,0,0.05,22.950000000000003,0)" xlink:href="#Q"/><use transform="matrix(0.05,0,0,0.05,32.95,0)" xlink:href="#R"/><use transform="matrix(0.05,0,0,0.05,37.95,0)" xlink:href="#S"/><use transform="matrix(0.05,0,0,0.05,47.95,0)" xlink:href="#T"/><use transform="matrix(0.05,0,0,0.05,56.95,0)" xlink:href="#R"/></g><path fill="#0c7cba" d="M185-189c-5-48-123-54-124 2 14 75 158 14 163 119 3 78-121 87-175 55-17-10-28-26-33-46l33-7c5 56 141 63 141-1 0-78-155-14-162-118-5-82 145-84 179-34 5 7 8 16 11 25" id="U"/><path fill="#0c7cba" d="M84 4C-5 8 30-112 23-190h32v120c0 31 7 50 39 49 72-2 45-101 50-169h31l1 190h-30c-1-10 1-25-2-33-11 22-28 36-60 37" id="V"/><path fill="#0c7cba" d="M115-194c53 0 69 39 70 98 0 66-23 100-70 100C84 3 66-7 56-30L54 0H23l1-261h32v101c10-23 28-34 59-34zm-8 174c40 0 45-34 45-75 0-40-5-75-45-74-42 0-51 32-51 76 0 43 10 73 51 73" id="W"/><path fill="#0c7cba" d="M16-82v-28h88v28H16" id="X"/><path fill="#0c7cba" d="M96-169c-40 0-48 33-48 73s9 75 48 75c24 0 41-14 43-38l32 2c-6 37-31 61-74 61-59 0-76-41-82-99-10-93 101-131 147-64 4 7 5 14 7 22l-32 3c-4-21-16-35-41-35" id="Y"/><path fill="#0c7cba" d="M100-194c62-1 85 37 85 99 1 63-27 99-86 99S16-35 15-95c0-66 28-99 85-99zM99-20c44 1 53-31 53-75 0-43-8-75-51-75s-53 32-53 75 10 74 51 75" id="Z"/><path fill="#0c7cba" d="M117-194c89-4 53 116 60 194h-32v-121c0-31-8-49-39-48C34-167 62-67 57 0H25l-1-190h30c1 10-1 24 2 32 11-22 29-35 61-36" id="aa"/><path fill="#0c7cba" d="M59-47c-2 24 18 29 38 22v24C64 9 27 4 27-40v-127H5v-23h24l9-43h21v43h35v23H59v120" id="ab"/><path fill="#0c7cba" d="M141-36C126-15 110 5 73 4 37 3 15-17 15-53c-1-64 63-63 125-63 3-35-9-54-41-54-24 1-41 7-42 31l-33-3c5-37 33-52 76-52 45 0 72 20 72 64v82c-1 20 7 32 28 27v20c-31 9-61-2-59-35zM48-53c0 20 12 33 32 33 41-3 63-29 60-74-43 2-92-5-92 41" id="ac"/><g id="e"><use transform="matrix(0.05,0,0,0.05,0,0)" xlink:href="#U"/><use transform="matrix(0.05,0,0,0.05,12,0)" xlink:href="#V"/><use transform="matrix(0.05,0,0,0.05,22,0)" xlink:href="#W"/><use transform="matrix(0.05,0,0,0.05,32,0)" xlink:href="#X"/><use transform="matrix(0.05,0,0,0.05,37.95,0)" xlink:href="#Y"/><use transform="matrix(0.05,0,0,0.05,46.95,0)" xlink:href="#Z"/><use transform="matrix(0.05,0,0,0.05,56.95,0)" xlink:href="#aa"/><use transform="matrix(0.05,0,0,0.05,66.95,0)" xlink:href="#ab"/><use transform="matrix(0.05,0,0,0.05,71.95,0)" xlink:href="#ac"/><use transform="matrix(0.05,0,0,0.05,81.95,0)" xlink:href="#Y"/><use transform="matrix(0.05,0,0,0.05,90.95,0)" xlink:href="#ab"/></g><path d="M127-220V0H93v-220H8v-28h204v28h-85" id="ad"/><path d="M24-231v-30h32v30H24zM24 0v-190h32V0H24" id="ae"/><path d="M210-169c-67 3-38 105-44 169h-31v-121c0-29-5-50-35-48C34-165 62-65 56 0H25l-1-190h30c1 10-1 24 2 32 10-44 99-50 107 0 11-21 27-35 58-36 85-2 47 119 55 194h-31v-121c0-29-5-49-35-48" id="af"/><path d="M100-194c63 0 86 42 84 106H49c0 40 14 67 53 68 26 1 43-12 49-29l28 8c-11 28-37 45-77 45C44 4 14-33 15-96c1-61 26-98 85-98zm52 81c6-60-76-77-97-28-3 7-6 17-6 28h103" id="ag"/><path d="M24 0v-261h32V0H24" id="ah"/><path d="M117-194c89-4 53 116 60 194h-32v-121c0-31-8-49-39-48C34-167 62-67 57 0H25l-1-190h30c1 10-1 24 2 32 11-22 29-35 61-36" id="ai"/><g id="f"><use transform="matrix(0.05,0,0,0.05,0,0)" xlink:href="#ad"/><use transform="matrix(0.05,0,0,0.05,10.3,0)" xlink:href="#ae"/><use transform="matrix(0.05,0,0,0.05,14.25,0)" xlink:href="#af"/><use transform="matrix(0.05,0,0,0.05,29.200000000000003,0)" xlink:href="#ag"/><use transform="matrix(0.05,0,0,0.05,39.2,0)" xlink:href="#ah"/><use transform="matrix(0.05,0,0,0.05,43.150000000000006,0)" xlink:href="#ae"/><use transform="matrix(0.05,0,0,0.05,47.10000000000001,0)" xlink:href="#ai"/><use transform="matrix(0.05,0,0,0.05,57.1,0)" xlink:href="#ag"/></g><g id="g"><use transform="matrix(0.05,0,0,0.05,0,0)" xlink:href="#O"/><use transform="matrix(0.05,0,0,0.05,12.950000000000001,0)" xlink:href="#P"/><use transform="matrix(0.05,0,0,0.05,22.950000000000003,0)" xlink:href="#Q"/><use transform="matrix(0.05,0,0,0.05,32.95,0)" xlink:href="#R"/><use transform="matrix(0.05,0,0,0.05,37.95,0)" xlink:href="#S"/><use transform="matrix(0.05,0,0,0.05,47.95,0)" xlink:href="#T"/><use transform="matrix(0.05,0,0,0.05,56.95,0)" xlink:href="#R"/></g><use transform="matrix(0.05,0,0,0.05,0,0)" xlink:href="#Q" id="h"/><path fill="#ef8d22" d="M118-107v75H92v-75H18v-26h74v-75h26v75h74v26h-74" id="aj"/><path fill="#ef8d22" d="M27 0v-27h64v-190l-56 39v-29l58-41h29v221h61V0H27" id="ak"/><g id="i"><use transform="matrix(0.05,0,0,0.05,0,0)" xlink:href="#Q"/><use transform="matrix(0.05,0,0,0.05,10,0)" xlink:href="#aj"/><use transform="matrix(0.05,0,0,0.05,20.5,0)" xlink:href="#ak"/></g><path fill="#c92d39" d="M205 0l-28-72H64L36 0H1l101-248h38L239 0h-34zm-38-99l-47-123c-12 45-31 82-46 123h93" id="al"/><path fill="#c92d39" d="M115-194c55 1 70 41 70 98S169 2 115 4C84 4 66-9 55-30l1 105H24l-1-265h31l2 30c10-21 28-34 59-34zm-8 174c40 0 45-34 45-75s-6-73-45-74c-42 0-51 32-51 76 0 43 10 73 51 73" id="am"/><path fill="#c92d39" d="M85-194c31 0 48 13 60 33l-1-100h32l1 261h-30c-2-10 0-23-3-31C134-8 116 4 85 4 32 4 16-35 15-94c0-66 23-100 70-100zm9 24c-40 0-46 34-46 75 0 40 6 74 45 74 42 0 51-32 51-76 0-42-9-74-50-73" id="an"/><path fill="#c92d39" d="M24-231v-30h32v30H24zM24 0v-190h32V0H24" id="ao"/><path fill="#c92d39" d="M96-169c-40 0-48 33-48 73s9 75 48 75c24 0 41-14 43-38l32 2c-6 37-31 61-74 61-59 0-76-41-82-99-10-93 101-131 147-64 4 7 5 14 7 22l-32 3c-4-21-16-35-41-35" id="ap"/><path fill="#c92d39" d="M135-143c-3-34-86-38-87 0 15 53 115 12 119 90S17 21 10-45l28-5c4 36 97 45 98 0-10-56-113-15-118-90-4-57 82-63 122-42 12 7 21 19 24 35" id="aq"/><g id="j"><use transform="matrix(0.05,0,0,0.05,0,0)" xlink:href="#al"/><use transform="matrix(0.05,0,0,0.05,12,0)" xlink:href="#am"/><use transform="matrix(0.05,0,0,0.05,22,0)" xlink:href="#am"/><use transform="matrix(0.05,0,0,0.05,32,0)" xlink:href="#A"/><use transform="matrix(0.05,0,0,0.05,42,0)" xlink:href="#H"/><use transform="matrix(0.05,0,0,0.05,52,0)" xlink:href="#an"/><use transform="matrix(0.05,0,0,0.05,62,0)" xlink:href="#ao"/><use transform="matrix(0.05,0,0,0.05,65.95,0)" xlink:href="#ap"/><use transform="matrix(0.05,0,0,0.05,74.95,0)" xlink:href="#ao"/><use transform="matrix(0.05,0,0,0.05,78.9,0)" xlink:href="#D"/><use transform="matrix(0.05,0,0,0.05,83.9,0)" xlink:href="#ao"/><use transform="matrix(0.05,0,0,0.05,87.85000000000001,0)" xlink:href="#aq"/></g><path fill="#19967d" d="M212-179c-10-28-35-45-73-45-59 0-87 40-87 99 0 60 29 101 89 101 43 0 62-24 78-52l27 14C228-24 195 4 139 4 59 4 22-46 18-125c-6-104 99-153 187-111 19 9 31 26 39 46" id="ar"/><path fill="#19967d" d="M100-194c62-1 85 37 85 99 1 63-27 99-86 99S16-35 15-95c0-66 28-99 85-99zM99-20c44 1 53-31 53-75 0-43-8-75-51-75s-53 32-53 75 10 74 51 75" id="as"/><path fill="#19967d" d="M210-169c-67 3-38 105-44 169h-31v-121c0-29-5-50-35-48C34-165 62-65 56 0H25l-1-190h30c1 10-1 24 2 32 10-44 99-50 107 0 11-21 27-35 58-36 85-2 47 119 55 194h-31v-121c0-29-5-49-35-48" id="at"/><path fill="#19967d" d="M115-194c55 1 70 41 70 98S169 2 115 4C84 4 66-9 55-30l1 105H24l-1-265h31l2 30c10-21 28-34 59-34zm-8 174c40 0 45-34 45-75s-6-73-45-74c-42 0-51 32-51 76 0 43 10 73 51 73" id="au"/><path fill="#19967d" d="M24 0v-261h32V0H24" id="av"/><path fill="#19967d" d="M141-36C126-15 110 5 73 4 37 3 15-17 15-53c-1-64 63-63 125-63 3-35-9-54-41-54-24 1-41 7-42 31l-33-3c5-37 33-52 76-52 45 0 72 20 72 64v82c-1 20 7 32 28 27v20c-31 9-61-2-59-35zM48-53c0 20 12 33 32 33 41-3 63-29 60-74-43 2-92-5-92 41" id="aw"/><path fill="#19967d" d="M117-194c89-4 53 116 60 194h-32v-121c0-31-8-49-39-48C34-167 62-67 57 0H25l-1-190h30c1 10-1 24 2 32 11-22 29-35 61-36" id="ax"/><path fill="#19967d" d="M59-47c-2 24 18 29 38 22v24C64 9 27 4 27-40v-127H5v-23h24l9-43h21v43h35v23H59v120" id="ay"/><path fill="#19967d" d="M33-154v-36h34v36H33zM33 0v-36h34V0H33" id="az"/><g id="k"><use transform="matrix(0.03765432098765432,0,0,0.03765432098765432,0,0)" xlink:href="#ar"/><use transform="matrix(0.03765432098765432,0,0,0.03765432098765432,9.752469135802468,0)" xlink:href="#as"/><use transform="matrix(0.03765432098765432,0,0,0.03765432098765432,17.28333333333333,0)" xlink:href="#at"/><use transform="matrix(0.03765432098765432,0,0,0.03765432098765432,28.541975308641973,0)" xlink:href="#au"/><use transform="matrix(0.03765432098765432,0,0,0.03765432098765432,36.07283950617284,0)" xlink:href="#av"/><use transform="matrix(0.03765432098765432,0,0,0.03765432098765432,39.04753086419753,0)" xlink:href="#aw"/><use transform="matrix(0.03765432098765432,0,0,0.03765432098765432,46.5783950617284,0)" xlink:href="#M"/><use transform="matrix(0.03765432098765432,0,0,0.03765432098765432,49.55308641975309,0)" xlink:href="#ax"/><use transform="matrix(0.03765432098765432,0,0,0.03765432098765432,57.08395061728396,0)" xlink:href="#ay"/><use transform="matrix(0.03765432098765432,0,0,0.03765432098765432,60.84938271604939,0)" xlink:href="#az"/></g><path fill="#19967d" d="M115-194c53 0 69 39 70 98 0 66-23 100-70 100C84 3 66-7 56-30L54 0H23l1-261h32v101c10-23 28-34 59-34zm-8 174c40 0 45-34 45-75 0-40-5-75-45-74-42 0-51 32-51 76 0 43 10 73 51 73" id="aA"/><path fill="#19967d" d="M85-194c31 0 48 13 60 33l-1-100h32l1 261h-30c-2-10 0-23-3-31C134-8 116 4 85 4 32 4 16-35 15-94c0-66 23-100 70-100zm9 24c-40 0-46 34-46 75 0 40 6 74 45 74 42 0 51-32 51-76 0-42-9-74-50-73" id="aB"/><g id="l"><use transform="matrix(0.03765432098765432,0,0,0.03765432098765432,0,0)" xlink:href="#aw"/><use transform="matrix(0.03765432098765432,0,0,0.03765432098765432,7.530864197530864,0)" xlink:href="#aA"/><use transform="matrix(0.03765432098765432,0,0,0.03765432098765432,15.061728395061728,0)" xlink:href="#aB"/><use transform="matrix(0.03765432098765432,0,0,0.03765432098765432,22.59259259259259,0)" xlink:href="#as"/><use transform="matrix(0.03765432098765432,0,0,0.03765432098765432,30.123456790123456,0)" xlink:href="#at"/><use transform="matrix(0.03765432098765432,0,0,0.03765432098765432,41.3820987654321,0)" xlink:href="#M"/><use transform="matrix(0.03765432098765432,0,0,0.03765432098765432,44.35679012345678,0)" xlink:href="#ax"/><use transform="matrix(0.03765432098765432,0,0,0.03765432098765432,51.88765432098765,0)" xlink:href="#aw"/><use transform="matrix(0.03765432098765432,0,0,0.03765432098765432,59.41851851851851,0)" xlink:href="#av"/></g><g id="m"><use transform="matrix(0.03765432098765432,0,0,0.03765432098765432,0,0)" xlink:href="#au"/><use transform="matrix(0.03765432098765432,0,0,0.03765432098765432,7.530864197530864,0)" xlink:href="#aw"/><use transform="matrix(0.03765432098765432,0,0,0.03765432098765432,15.061728395061728,0)" xlink:href="#M"/><use transform="matrix(0.03765432098765432,0,0,0.03765432098765432,18.03641975308642,0)" xlink:href="#ax"/></g><path fill="#19967d" d="M30-248c118-7 216 8 213 122C240-48 200 0 122 0H30v-248zM63-27c89 8 146-16 146-99s-60-101-146-95v194" id="aC"/><path fill="#19967d" d="M177-190C167-65 218 103 67 71c-23-6-38-20-44-43l32-5c15 47 100 32 89-28v-30C133-14 115 1 83 1 29 1 15-40 15-95c0-56 16-97 71-98 29-1 48 16 59 35 1-10 0-23 2-32h30zM94-22c36 0 50-32 50-73 0-42-14-75-50-75-39 0-46 34-46 75s6 73 46 73" id="aD"/><path fill="#19967d" d="M135-143c-3-34-86-38-87 0 15 53 115 12 119 90S17 21 10-45l28-5c4 36 97 45 98 0-10-56-113-15-118-90-4-57 82-63 122-42 12 7 21 19 24 35" id="aE"/><g id="o"><use transform="matrix(0.03765432098765432,0,0,0.03765432098765432,0,0)" xlink:href="#aC"/><use transform="matrix(0.03765432098765432,0,0,0.03765432098765432,9.752469135802468,0)" xlink:href="#M"/><use transform="matrix(0.03765432098765432,0,0,0.03765432098765432,12.72716049382716,0)" xlink:href="#aw"/><use transform="matrix(0.03765432098765432,0,0,0.03765432098765432,20.258024691358024,0)" xlink:href="#aD"/><use transform="matrix(0.03765432098765432,0,0,0.03765432098765432,27.788888888888888,0)" xlink:href="#ax"/><use transform="matrix(0.03765432098765432,0,0,0.03765432098765432,35.31975308641975,0)" xlink:href="#as"/><use transform="matrix(0.03765432098765432,0,0,0.03765432098765432,42.85061728395061,0)" xlink:href="#aE"/><use transform="matrix(0.03765432098765432,0,0,0.03765432098765432,49.62839506172839,0)" xlink:href="#M"/><use transform="matrix(0.03765432098765432,0,0,0.03765432098765432,52.60308641975308,0)" xlink:href="#aE"/><use transform="matrix(0.03765432098765432,0,0,0.03765432098765432,59.38086419753086,0)" xlink:href="#az"/></g><g id="p"><use transform="matrix(0.03765432098765432,0,0,0.03765432098765432,0,0)" xlink:href="#aw"/><use transform="matrix(0.03765432098765432,0,0,0.03765432098765432,7.530864197530864,0)" xlink:href="#au"/><use transform="matrix(0.03765432098765432,0,0,0.03765432098765432,15.061728395061728,0)" xlink:href="#au"/><use transform="matrix(0.03765432098765432,0,0,0.03765432098765432,22.59259259259259,0)" xlink:href="#J"/><use transform="matrix(0.03765432098765432,0,0,0.03765432098765432,30.123456790123456,0)" xlink:href="#ax"/><use transform="matrix(0.03765432098765432,0,0,0.03765432098765432,37.654320987654316,0)" xlink:href="#aB"/><use transform="matrix(0.03765432098765432,0,0,0.03765432098765432,45.18518518518517,0)" xlink:href="#M"/><use transform="matrix(0.03765432098765432,0,0,0.03765432098765432,48.15987654320987,0)" xlink:href="#N"/><use transform="matrix(0.03765432098765432,0,0,0.03765432098765432,54.93765432098765,0)" xlink:href="#M"/><use transform="matrix(0.03765432098765432,0,0,0.03765432098765432,57.91234567901234,0)" xlink:href="#ay"/><use transform="matrix(0.03765432098765432,0,0,0.03765432098765432,61.67777777777777,0)" xlink:href="#M"/><use transform="matrix(0.03765432098765432,0,0,0.03765432098765432,64.65246913580246,0)" xlink:href="#aE"/></g><path fill="#0c7cba" d="M24-231v-30h32v30H24zM24 0v-190h32V0H24" id="aF"/><path fill="#0c7cba" d="M135-143c-3-34-86-38-87 0 15 53 115 12 119 90S17 21 10-45l28-5c4 36 97 45 98 0-10-56-113-15-118-90-4-57 82-63 122-42 12 7 21 19 24 35" id="aG"/><g id="r"><use transform="matrix(0.05,0,0,0.05,0,0)" xlink:href="#aF"/><use transform="matrix(0.05,0,0,0.05,3.95,0)" xlink:href="#aG"/></g><use transform="matrix(0.05,0,0,0.05,0,0)" xlink:href="#ac" id="s"/><path fill="#0c7cba" d="M100-194c63 0 86 42 84 106H49c0 40 14 67 53 68 26 1 43-12 49-29l28 8c-11 28-37 45-77 45C44 4 14-33 15-96c1-61 26-98 85-98zm52 81c6-60-76-77-97-28-3 7-6 17-6 28h103" id="aH"/><path fill="#0c7cba" d="M114-163C36-179 61-72 57 0H25l-1-190h30c1 12-1 29 2 39 6-27 23-49 58-41v29" id="aI"/><path fill="#0c7cba" d="M108 0H70L1-190h34L89-25l56-165h34" id="aJ"/><g id="t"><use transform="matrix(0.05,0,0,0.05,0,0)" xlink:href="#aG"/><use transform="matrix(0.05,0,0,0.05,9,0)" xlink:href="#aH"/><use transform="matrix(0.05,0,0,0.05,19,0)" xlink:href="#aI"/><use transform="matrix(0.05,0,0,0.05,24.95,0)" xlink:href="#aJ"/><use transform="matrix(0.05,0,0,0.05,33.95,0)" xlink:href="#aF"/><use transform="matrix(0.05,0,0,0.05,37.900000000000006,0)" xlink:href="#Y"/><use transform="matrix(0.05,0,0,0.05,46.900000000000006,0)" xlink:href="#aH"/></g><path fill="#0c7cba" d="M101-234c-31-9-42 10-38 44h38v23H63V0H32v-167H5v-23h27c-7-52 17-82 69-68v24" id="aK"/><g id="u"><use transform="matrix(0.05,0,0,0.05,0,0)" xlink:href="#aK"/><use transform="matrix(0.05,0,0,0.05,5,0)" xlink:href="#Z"/><use transform="matrix(0.05,0,0,0.05,15,0)" xlink:href="#aI"/></g><path fill="#19967d" d="M140-251c81 0 123 46 123 126C263-46 219 4 140 4 59 4 17-45 17-125s42-126 123-126zm0 227c63 0 89-41 89-101s-29-99-89-99c-61 0-89 39-89 99S79-25 140-24" id="aL"/><g id="v"><use transform="matrix(0.03765432098765432,0,0,0.03765432098765432,0,0)" xlink:href="#aL"/><use transform="matrix(0.03765432098765432,0,0,0.03765432098765432,10.543209876543209,0)" xlink:href="#au"/><use transform="matrix(0.03765432098765432,0,0,0.03765432098765432,18.074074074074073,0)" xlink:href="#J"/><use transform="matrix(0.03765432098765432,0,0,0.03765432098765432,25.604938271604937,0)" xlink:href="#K"/><use transform="matrix(0.03765432098765432,0,0,0.03765432098765432,30.0858024691358,0)" xlink:href="#aw"/><use transform="matrix(0.03765432098765432,0,0,0.03765432098765432,37.61666666666666,0)" xlink:href="#ay"/><use transform="matrix(0.03765432098765432,0,0,0.03765432098765432,41.38209876543208,0)" xlink:href="#M"/><use transform="matrix(0.03765432098765432,0,0,0.03765432098765432,44.35679012345678,0)" xlink:href="#as"/><use transform="matrix(0.03765432098765432,0,0,0.03765432098765432,51.88765432098765,0)" xlink:href="#ax"/><use transform="matrix(0.03765432098765432,0,0,0.03765432098765432,59.41851851851851,0)" xlink:href="#az"/></g><path fill="#19967d" d="M205 0l-28-72H64L36 0H1l101-248h38L239 0h-34zm-38-99l-47-123c-12 45-31 82-46 123h93" id="aM"/><path fill="#19967d" d="M179-190L93 31C79 59 56 82 12 73V49c39 6 53-20 64-50L1-190h34L92-34l54-156h33" id="aN"/><g id="w"><use transform="matrix(0.03765432098765432,0,0,0.03765432098765432,0,0)" xlink:href="#aM"/><use transform="matrix(0.03765432098765432,0,0,0.03765432098765432,9.037037037037036,0)" xlink:href="#au"/><use transform="matrix(0.03765432098765432,0,0,0.03765432098765432,16.5679012345679,0)" xlink:href="#au"/><use transform="matrix(0.03765432098765432,0,0,0.03765432098765432,24.098765432098762,0)" xlink:href="#J"/><use transform="matrix(0.03765432098765432,0,0,0.03765432098765432,31.629629629629626,0)" xlink:href="#ax"/><use transform="matrix(0.03765432098765432,0,0,0.03765432098765432,39.160493827160494,0)" xlink:href="#aB"/><use transform="matrix(0.03765432098765432,0,0,0.03765432098765432,46.691358024691354,0)" xlink:href="#M"/><use transform="matrix(0.03765432098765432,0,0,0.03765432098765432,49.66604938271605,0)" xlink:href="#N"/><use transform="matrix(0.03765432098765432,0,0,0.03765432098765432,56.443827160493825,0)" xlink:href="#J"/><use transform="matrix(0.03765432098765432,0,0,0.03765432098765432,63.974691358024685,0)" xlink:href="#N"/><use transform="matrix(0.03765432098765432,0,0,0.03765432098765432,70.75246913580246,0)" xlink:href="#ay"/><use transform="matrix(0.03765432098765432,0,0,0.03765432098765432,74.51790123456789,0)" xlink:href="#as"/><use transform="matrix(0.03765432098765432,0,0,0.03765432098765432,82.04876543209875,0)" xlink:href="#at"/><use transform="matrix(0.03765432098765432,0,0,0.03765432098765432,93.3074074074074,0)" xlink:href="#aN"/></g><path fill="#19967d" d="M30-248c87 1 191-15 191 75 0 78-77 80-158 76V0H30v-248zm33 125c57 0 124 11 124-50 0-59-68-47-124-48v98" id="aO"/><g id="x"><use transform="matrix(0.03765432098765432,0,0,0.03765432098765432,0,0)" xlink:href="#aO"/><use transform="matrix(0.03765432098765432,0,0,0.03765432098765432,9.037037037037036,0)" xlink:href="#K"/><use transform="matrix(0.03765432098765432,0,0,0.03765432098765432,13.517901234567901,0)" xlink:href="#J"/><use transform="matrix(0.03765432098765432,0,0,0.03765432098765432,21.048765432098765,0)" xlink:href="#aE"/><use transform="matrix(0.03765432098765432,0,0,0.03765432098765432,27.82654320987654,0)" xlink:href="#N"/><use transform="matrix(0.03765432098765432,0,0,0.03765432098765432,34.60432098765432,0)" xlink:href="#K"/><use transform="matrix(0.03765432098765432,0,0,0.03765432098765432,39.08518518518518,0)" xlink:href="#M"/><use transform="matrix(0.03765432098765432,0,0,0.03765432098765432,42.059876543209874,0)" xlink:href="#au"/><use transform="matrix(0.03765432098765432,0,0,0.03765432098765432,49.59074074074074,0)" xlink:href="#ay"/><use transform="matrix(0.03765432098765432,0,0,0.03765432098765432,53.356172839506165,0)" xlink:href="#M"/><use transform="matrix(0.03765432098765432,0,0,0.03765432098765432,56.330864197530865,0)" xlink:href="#as"/><use transform="matrix(0.03765432098765432,0,0,0.03765432098765432,63.86172839506173,0)" xlink:href="#ax"/><use transform="matrix(0.03765432098765432,0,0,0.03765432098765432,71.39259259259259,0)" xlink:href="#az"/></g><path fill="#19967d" d="M101-234c-31-9-42 10-38 44h38v23H63V0H32v-167H5v-23h27c-7-52 17-82 69-68v24" id="aP"/><path fill="#19967d" d="M84 4C-5 8 30-112 23-190h32v120c0 31 7 50 39 49 72-2 45-101 50-169h31l1 190h-30c-1-10 1-25-2-33-11 22-28 36-60 37" id="aQ"/><path fill="#19967d" d="M141 0L90-78 38 0H4l68-98-65-92h35l48 74 47-74h35l-64 92 68 98h-35" id="aR"/><g id="y"><use transform="matrix(0.03765432098765432,0,0,0.03765432098765432,0,0)" xlink:href="#N"/><use transform="matrix(0.03765432098765432,0,0,0.03765432098765432,6.777777777777777,0)" xlink:href="#J"/><use transform="matrix(0.03765432098765432,0,0,0.03765432098765432,14.30864197530864,0)" xlink:href="#aP"/><use transform="matrix(0.03765432098765432,0,0,0.03765432098765432,18.074074074074073,0)" xlink:href="#aQ"/><use transform="matrix(0.03765432098765432,0,0,0.03765432098765432,25.604938271604937,0)" xlink:href="#K"/><use transform="matrix(0.03765432098765432,0,0,0.03765432098765432,30.0858024691358,0)" xlink:href="#as"/><use transform="matrix(0.03765432098765432,0,0,0.03765432098765432,37.61666666666666,0)" xlink:href="#aR"/><use transform="matrix(0.03765432098765432,0,0,0.03765432098765432,44.39444444444444,0)" xlink:href="#M"/><use transform="matrix(0.03765432098765432,0,0,0.03765432098765432,47.36913580246913,0)" xlink:href="#at"/><use transform="matrix(0.03765432098765432,0,0,0.03765432098765432,58.62777777777777,0)" xlink:href="#J"/></g></defs></g></svg>